# xmcd
#
# Track frame offsets: 
#        183
#        9820
#        28495
#        41040
#        56188
#        69908
#        80690
#        94430
#        107410
#        123365
#
# Disc length: 1870 seconds
#
# Revision: 0
# Processed by: cddbd v1.5.2PL0 Copyright (c) Steve Scherf et al.
# Submitted via: ExactAudioCopy v1.3
#
DISCID=82074c0a
DTITLE=B. J. Thomas - Precious Memories
DYEAR=1995
DGENRE=Country
TTITLE0=Turn Your Radio On
TTITLE1=Amazing Grace
TTITLE2=Uncloudy Day
TTITLE3=Old Rugged Cross
TTITLE4=Home Where I Belong
TTITLE5=Swing Low Sweet Chariot
TTITLE6=How Great Thou Art
TTITLE7=Precious Memories
TTITLE8=His Eye Is On The Sparrow
TTITLE9=Just A Closer Walk With Thee
EXTD=
EXTT0=
EXTT1=
EXTT2=
EXTT3=
EXTT4=
EXTT5=
EXTT6=
EXTT7=
EXTT8=
EXTT9=
PLAYORDER=
